<?xml version="1.0" encoding="UTF-8" standalone="no"?>
<!-- Generator: Adobe Illustrator 19.0.0, SVG Export Plug-In . SVG Version: 6.00 Build 0)  -->

<svg
   xmlns:dc="http://purl.org/dc/elements/1.1/"
   xmlns:cc="http://creativecommons.org/ns#"
   xmlns:rdf="http://www.w3.org/1999/02/22-rdf-syntax-ns#"
   xmlns:svg="http://www.w3.org/2000/svg"
   xmlns="http://www.w3.org/2000/svg"
   xmlns:sodipodi="http://sodipodi.sourceforge.net/DTD/sodipodi-0.dtd"
   xmlns:inkscape="http://www.inkscape.org/namespaces/inkscape"
   version="1.1"
   id="Layer_1"
   x="0px"
   y="0px"
   viewBox="0 0 669.49155 669.49155"
   xml:space="preserve"
   sodipodi:docname="implementation-icon.svg"
   width="836.86444"
   height="836.86444"
   inkscape:version="0.92.5 (2060ec1f9f, 2020-04-08)"><metadata
   id="metadata67"><rdf:RDF><cc:Work
       rdf:about=""><dc:format>image/svg+xml</dc:format><dc:type
         rdf:resource="http://purl.org/dc/dcmitype/StillImage" /><dc:title /></cc:Work></rdf:RDF></metadata><defs
   id="defs65">
	
	
	
	
	

		
		
	
		
		
	
			
		
			
		
			
		
			
		<clipPath
   clipPathUnits="userSpaceOnUse"
   id="clipPath3587"><path
     clip-path="none"
     style="fill:#f4661e;stroke-width:1.45541632"
     d="m 334.74576,0 c 184.83788,0 334.74577,149.90788 334.74577,334.74576 0,184.83788 -149.90789,334.74577 -334.74577,334.74577 C 149.90788,669.49153 0,519.58364 0,334.74576 0,149.90788 149.90788,0 334.74576,0 Z"
     id="path3589"
     inkscape:connector-curvature="0" /></clipPath></defs><sodipodi:namedview
   pagecolor="#ffffff"
   bordercolor="#666666"
   borderopacity="1"
   objecttolerance="10"
   gridtolerance="10"
   guidetolerance="10"
   inkscape:pageopacity="0"
   inkscape:pageshadow="2"
   inkscape:window-width="1864"
   inkscape:window-height="1016"
   id="namedview63"
   showgrid="false"
   scale-x="0.8"
   fit-margin-top="0"
   fit-margin-left="0"
   fit-margin-right="0"
   fit-margin-bottom="0"
   inkscape:zoom="0.69532167"
   inkscape:cx="205.54682"
   inkscape:cy="335.76363"
   inkscape:window-x="56"
   inkscape:window-y="27"
   inkscape:window-maximized="1"
   inkscape:current-layer="Layer_1" />
<path
   inkscape:connector-curvature="0"
   id="path2"
   d="m 334.74576,0 c 184.83788,0 334.74577,149.90788 334.74577,334.74576 0,184.83788 -149.90789,334.74577 -334.74577,334.74577 C 149.90788,669.49153 0,519.58364 0,334.74576 0,149.90788 149.90788,0 334.74576,0 Z"
   style="fill:#ff9955;stroke-width:1.45541632"
   clip-path="none" /><g
   id="g2998"
   clip-path="url(#clipPath3587)"><g
     id="g2995"
     style="fill:#000000;opacity:0.3"><path
       id="path2613"
       d="M336.34577 266.34577L277.95977 266.34577L631.513160593 619.899160593L689.899160593 619.899160593Z"
       style="" /><path
       id="path2615"
       d="M277.95977 266.34577L297.93077 248.87077L651.484160593 602.424160593L631.513160593 619.899160593Z"
       style="" /><path
       id="path2617"
       d="M297.93077 248.87077L284.76077 233.81977L638.314160593 587.373160593L651.484160593 602.424160593Z"
       style="" /><path
       id="path2619"
       d="M284.76077 233.81977L244.76077 268.81977L598.314160593 622.373160593L638.314160593 587.373160593Z"
       style="" /><path
       id="path2621"
       d="M244.76077 268.81977C242.59077 270.71777 241.34577 273.46177 241.34577 276.34477L594.899160593 629.898160593C594.899160593 627.015160593 596.144160593 624.271160593 598.314160593 622.373160593Z"
       style="" /><path
       id="path2623"
       d="M241.34577 276.34477C241.34577 279.004487015 242.40539191 281.54590086 244.273376315 283.413885265L597.826766908 636.967275858C595.958782504 635.099291454 594.899160593 632.557877608 594.899160593 629.898160593Z"
       style="" /><path
       id="path2625"
       d="M244.273376315 283.413885265C244.430193424 283.570702374 244.592707538 283.722773432 244.76077 283.86977L598.314160593 637.423160593C598.146098131 637.276164025 597.983584017 637.124092968 597.826766908 636.967275858Z"
       style="" /><path
       id="path2627"
       d="M244.76077 283.86977L284.76077 318.86977L638.314160593 672.423160593L598.314160593 637.423160593Z"
       style="" /><path
       id="path2629"
       d="M284.76077 318.86977L297.93077 303.81877L651.484160593 657.372160593L638.314160593 672.423160593Z"
       style="" /><path
       id="path2631"
       d="M297.93077 303.81877L277.95977 286.34577L631.513160593 639.899160593L651.484160593 657.372160593Z"
       style="" /><path
       id="path2633"
       d="M277.95977 286.34577L336.34577 286.34577L689.899160593 639.899160593L631.513160593 639.899160593Z"
       style="" /><path
       id="path2635"
       d="M336.34577 286.34577C363.91577 286.34577 386.34577 308.77577 386.34577 336.34577L739.899160593 689.899160593C739.899160593 662.329160593 717.469160593 639.899160593 689.899160593 639.899160593Z"
       style="" /><path
       id="path2637"
       d="M386.34577 336.34577L406.34577 336.34577L759.899160593 689.899160593L739.899160593 689.899160593Z"
       style="" /><path
       id="path2639"
       d="M406.34577 336.34577C406.34577 297.74777 374.94377 266.34577 336.34577 266.34577L689.899160593 619.899160593C728.497160593 619.899160593 759.899160593 651.301160593 759.899160593 689.899160593Z"
       style="" /><path
       id="path2641"
       d="M427.93077 388.82077L387.93077 353.82077L741.484160593 707.374160593L781.484160593 742.374160593Z"
       style="" /><path
       id="path2643"
       d="M387.93077 353.82077L374.76077 368.87177L728.314160593 722.425160593L741.484160593 707.374160593Z"
       style="" /><path
       id="path2645"
       d="M374.76077 368.87177L394.73177 386.34577L748.285160593 739.899160593L728.314160593 722.425160593Z"
       style="" /><path
       id="path2647"
       d="M394.73177 386.34577L336.34577 386.34577L689.899160593 739.899160593L748.285160593 739.899160593Z"
       style="" /><path
       id="path2649"
       d="M336.34577 386.34577C308.77577 386.34577 286.34577 363.91577 286.34577 336.34577L639.899160593 689.899160593C639.899160593 717.469160593 662.329160593 739.899160593 689.899160593 739.899160593Z"
       style="" /><path
       id="path2651"
       d="M286.34577 336.34577L266.34577 336.34577L619.899160593 689.899160593L639.899160593 689.899160593Z"
       style="" /><path
       id="path2653"
       d="M266.34577 336.34577C266.34577 374.94377 297.74777 406.34577 336.34577 406.34577L689.899160593 759.899160593C651.301160593 759.899160593 619.899160593 728.497160593 619.899160593 689.899160593Z"
       style="" /><path
       id="path2655"
       d="M336.34577 406.34577L394.73177 406.34577L748.285160593 759.899160593L689.899160593 759.899160593Z"
       style="" /><path
       id="path2657"
       d="M394.73177 406.34577L374.76077 423.82077L728.314160593 777.374160593L748.285160593 759.899160593Z"
       style="" /><path
       id="path2659"
       d="M374.76077 423.82077L387.93077 438.87177L741.484160593 792.425160593L728.314160593 777.374160593Z"
       style="" /><path
       id="path2661"
       d="M387.93077 438.87177L427.93077 403.87177L781.484160593 757.425160593L741.484160593 792.425160593Z"
       style="" /><path
       id="path2663"
       d="M427.93077 403.87177C430.10077 401.97377 431.34577 399.22977 431.34577 396.34677L784.899160593 749.900160593C784.899160593 752.783160593 783.654160593 755.527160593 781.484160593 757.425160593Z"
       style="" /><path
       id="path2665"
       d="M431.34577 396.34677C431.34577 393.686934728 430.286053861 391.144561968 428.417914515 389.276422622L781.971305109 742.829813215C783.839444454 744.697952561 784.899160593 747.240325321 784.899160593 749.900160593Z"
       style="" /><path
       id="path2667"
       d="M428.417914515 389.276422622C428.26117443 389.119682536 428.098743451 388.967688714 427.93077 388.82077L781.484160593 742.374160593C781.652134044 742.521079308 781.814565023 742.673073129 781.971305109 742.829813215Z"
       style="" /><path
       id="path2669"
       d="M361.34577 526.34577L311.34577 526.34577L664.899160593 879.899160593L714.899160593 879.899160593Z"
       style="" /><path
       id="path2671"
       d="M311.34577 526.34577C300.31777 526.34577 291.34577 517.37377 291.34577 506.34577L644.899160593 859.899160593C644.899160593 870.927160593 653.871160593 879.899160593 664.899160593 879.899160593Z"
       style="" /><path
       id="path2673"
       d="M291.34577 506.34577L291.34577 479.28877L644.899160593 832.842160593L644.899160593 859.899160593Z"
       style="" /><path
       id="path2675"
       d="M291.34577 479.28877C282.90677 476.64477 274.78577 473.28877 267.07477 469.25877L620.628160593 822.812160593C628.339160593 826.842160593 636.460160593 830.198160593 644.899160593 832.842160593Z"
       style="" /><path
       id="path2677"
       d="M267.07477 469.25877L247.91677 488.41677L601.470160593 841.970160593L620.628160593 822.812160593Z"
       style="" /><path
       id="path2679"
       d="M247.91677 488.41677C244.14177 492.19177 239.12677 494.27077 233.79577 494.27077L587.349160593 847.824160593C592.680160593 847.824160593 597.695160593 845.745160593 601.470160593 841.970160593Z"
       style="" /><path
       id="path2681"
       d="M233.79577 494.27077C228.46377 494.27077 223.44877 492.19177 219.67377 488.41677L573.227160593 841.970160593C577.002160593 845.745160593 582.017160593 847.824160593 587.349160593 847.824160593Z"
       style="" /><path
       id="path2683"
       d="M219.67377 488.41677L184.27477 453.01777L537.828160593 806.571160593L573.227160593 841.970160593Z"
       style="" /><path
       id="path2685"
       d="M184.27477 453.01777C180.50077 449.24377 178.42077 444.22877 178.42077 438.89677L531.974160593 792.450160593C531.974160593 797.782160593 534.054160593 802.797160593 537.828160593 806.571160593Z"
       style="" /><path
       id="path2687"
       d="M178.42077 438.89677C178.42077 433.56577 180.49877 428.55077 184.27477 424.77577L537.828160593 778.329160593C534.052160593 782.104160593 531.974160593 787.119160593 531.974160593 792.450160593Z"
       style="" /><path
       id="path2689"
       d="M184.27477 424.77577L203.43277 405.61777L556.986160593 759.171160593L537.828160593 778.329160593Z"
       style="" /><path
       id="path2691"
       d="M203.43277 405.61777C199.40277 397.90677 196.04577 389.78677 193.40277 381.34677L546.956160593 734.900160593C549.599160593 743.340160593 552.956160593 751.460160593 556.986160593 759.171160593Z"
       style="" /><path
       id="path2693"
       d="M193.40277 381.34677L166.34577 381.34677L519.899160593 734.900160593L546.956160593 734.900160593Z"
       style="" /><path
       id="path2695"
       d="M166.34577 381.34677C160.754108028 381.34677 155.691026893 379.04014195 152.058071662 375.328430916L505.611462255 728.881821509C509.244417487 732.593532543 514.307498621 734.900160593 519.899160593 734.900160593Z"
       style="" /><path
       id="path2697"
       d="M152.058071662 375.328430916C148.526031853 371.719822966 146.34577 366.783108028 146.34577 361.34677L499.899160593 714.900160593C499.899160593 720.336498621 502.079422446 725.273213559 505.611462255 728.881821509Z"
       style="" /><path
       id="path2699"
       d="M146.34577 361.34677L146.34577 311.34677L499.899160593 664.900160593L499.899160593 714.900160593Z"
       style="" /><path
       id="path2701"
       d="M146.34577 311.34677C146.34577 300.31877 155.31777 291.34677 166.34577 291.34677L519.899160593 644.900160593C508.871160593 644.900160593 499.899160593 653.872160593 499.899160593 664.900160593Z"
       style="" /><path
       id="path2703"
       d="M166.34577 291.34677L193.40277 291.34677L546.956160593 644.900160593L519.899160593 644.900160593Z"
       style="" /><path
       id="path2705"
       d="M193.40277 291.34677C196.04677 282.90777 199.40277 274.78677 203.43277 267.07577L556.986160593 620.629160593C552.956160593 628.340160593 549.600160593 636.461160593 546.956160593 644.900160593Z"
       style="" /><path
       id="path2707"
       d="M203.43277 267.07577L184.27477 247.91777L537.828160593 601.471160593L556.986160593 620.629160593Z"
       style="" /><path
       id="path2709"
       d="M184.27477 247.91777C180.49977 244.14277 178.42077 239.12777 178.42077 233.79677L531.974160593 587.350160593C531.974160593 592.681160593 534.053160593 597.696160593 537.828160593 601.471160593Z"
       style="" /><path
       id="path2711"
       d="M178.42077 233.79677C178.42077 228.46477 180.49977 223.44977 184.27477 219.67477L537.828160593 573.228160593C534.053160593 577.003160593 531.974160593 582.018160593 531.974160593 587.350160593Z"
       style="" /><path
       id="path2713"
       d="M184.27477 219.67477L219.67377 184.27577L573.227160593 537.829160593L537.828160593 573.228160593Z"
       style="" /><path
       id="path2715"
       d="M219.67377 184.27577C223.44777 180.50177 228.46277 178.42177 233.79477 178.42177L587.348160593 531.975160593C582.016160593 531.975160593 577.001160593 534.055160593 573.227160593 537.829160593Z"
       style="" /><path
       id="path2717"
       d="M233.79477 178.42177C239.124862736 178.42177 244.13906302 180.499062765 247.91384253 184.273842275L601.467233124 537.827232868C597.692453614 534.052453358 592.678253329 531.975160593 587.348160593 531.975160593Z"
       style="" /><path
       id="path2719"
       d="M247.91384253 184.273842275C247.914485056 184.274484801 247.915127546 184.275127376 247.91577 184.27577L601.469160593 537.829160593C601.468518139 537.828517969 601.467875649 537.827875394 601.467233124 537.827232868Z"
       style="" /><path
       id="path2721"
       d="M247.91577 184.27577L267.07377 203.43377L620.627160593 556.987160593L601.469160593 537.829160593Z"
       style="" /><path
       id="path2723"
       d="M267.07377 203.43377C274.78477 199.40377 282.90477 196.04677 291.34477 193.40377L644.898160593 546.957160593C636.458160593 549.600160593 628.338160593 552.957160593 620.627160593 556.987160593Z"
       style="" /><path
       id="path2725"
       d="M291.34477 193.40377L291.34477 166.34577L644.898160593 519.899160593L644.898160593 546.957160593Z"
       style="" /><path
       id="path2727"
       d="M291.34477 166.34577C291.34477 155.31777 300.31677 146.34577 311.34477 146.34577L664.898160593 499.899160593C653.870160593 499.899160593 644.898160593 508.871160593 644.898160593 519.899160593Z"
       style="" /><path
       id="path2729"
       d="M311.34477 146.34577L361.34477 146.34577L714.898160593 499.899160593L664.898160593 499.899160593Z"
       style="" /><path
       id="path2731"
       d="M361.34477 146.34577C366.783235753 146.34577 371.721687245 148.52773885 375.330667418 152.062219492L728.884058012 505.615610085C725.275077839 502.081129443 720.336626347 499.899160593 714.898160593 499.899160593Z"
       style="" /><path
       id="path2733"
       d="M375.330667418 152.062219492C379.039897041 155.694880152 381.34477 160.756235753 381.34477 166.34577L734.898160593 519.899160593C734.898160593 514.309626347 732.593287634 509.248270745 728.884058012 505.615610085Z"
       style="" /><path
       id="path2735"
       d="M381.34477 166.34577L381.34477 193.40277L734.898160593 546.956160593L734.898160593 519.899160593Z"
       style="" /><path
       id="path2737"
       d="M381.34477 193.40277C389.78377 196.04677 397.90477 199.40277 405.61577 203.43277L759.169160593 556.986160593C751.458160593 552.956160593 743.337160593 549.600160593 734.898160593 546.956160593Z"
       style="" /><path
       id="path2739"
       d="M405.61577 203.43277L424.77377 184.27477L778.327160593 537.828160593L759.169160593 556.986160593Z"
       style="" /><path
       id="path2741"
       d="M424.77377 184.27477C428.54877 180.49977 433.56377 178.42077 438.89477 178.42077L792.448160593 531.974160593C787.117160593 531.974160593 782.102160593 534.053160593 778.327160593 537.828160593Z"
       style="" /><path
       id="path2743"
       d="M438.89477 178.42077C444.22677 178.42077 449.24177 180.49977 453.01677 184.27477L806.570160593 537.828160593C802.795160593 534.053160593 797.780160593 531.974160593 792.448160593 531.974160593Z"
       style="" /><path
       id="path2745"
       d="M453.01677 184.27477L488.41577 219.67377L841.969160593 573.227160593L806.570160593 537.828160593Z"
       style="" /><path
       id="path2747"
       d="M488.41577 219.67377C492.18977 223.44777 494.26977 228.46277 494.26977 233.79477L847.823160593 587.348160593C847.823160593 582.016160593 845.743160593 577.001160593 841.969160593 573.227160593Z"
       style="" /><path
       id="path2749"
       d="M494.26977 233.79477C494.26977 239.12577 492.19177 244.14077 488.41577 247.91577L841.969160593 601.469160593C845.745160593 597.694160593 847.823160593 592.679160593 847.823160593 587.348160593Z"
       style="" /><path
       id="path2751"
       d="M488.41577 247.91577L469.25777 267.07377L822.811160593 620.627160593L841.969160593 601.469160593Z"
       style="" /><path
       id="path2753"
       d="M469.25777 267.07377C473.28777 274.78477 476.64477 282.90477 479.28777 291.34477L832.841160593 644.898160593C830.198160593 636.458160593 826.841160593 628.338160593 822.811160593 620.627160593Z"
       style="" /><path
       id="path2755"
       d="M479.28777 291.34477L506.34577 291.34477L859.899160593 644.898160593L832.841160593 644.898160593Z"
       style="" /><path
       id="path2757"
       d="M506.34577 291.34477C517.37377 291.34477 526.34577 300.31677 526.34577 311.34477L879.899160593 664.898160593C879.899160593 653.870160593 870.927160593 644.898160593 859.899160593 644.898160593Z"
       style="" /><path
       id="path2759"
       d="M526.34577 311.34477L526.34577 361.34477L879.899160593 714.898160593L879.899160593 664.898160593Z"
       style="" /><path
       id="path2761"
       d="M526.34577 361.34477C526.34577 372.37277 517.37377 381.34477 506.34577 381.34477L859.899160593 734.898160593C870.927160593 734.898160593 879.899160593 725.926160593 879.899160593 714.898160593Z"
       style="" /><path
       id="path2763"
       d="M506.34577 381.34477L479.28877 381.34477L832.842160593 734.898160593L859.899160593 734.898160593Z"
       style="" /><path
       id="path2765"
       d="M479.28877 381.34477C476.64477 389.78377 473.28877 397.90477 469.25877 405.61577L822.812160593 759.169160593C826.842160593 751.458160593 830.198160593 743.337160593 832.842160593 734.898160593Z"
       style="" /><path
       id="path2767"
       d="M469.25877 405.61577L488.41677 424.77377L841.970160593 778.327160593L822.812160593 759.169160593Z"
       style="" /><path
       id="path2769"
       d="M488.41677 424.77377C492.19177 428.54877 494.27077 433.56377 494.27077 438.89477L847.824160593 792.448160593C847.824160593 787.117160593 845.745160593 782.102160593 841.970160593 778.327160593Z"
       style="" /><path
       id="path2771"
       d="M494.27077 438.89477C494.27077 444.22677 492.19177 449.24177 488.41677 453.01677L841.970160593 806.570160593C845.745160593 802.795160593 847.824160593 797.780160593 847.824160593 792.448160593Z"
       style="" /><path
       id="path2773"
       d="M488.41677 453.01677L453.01777 488.41577L806.571160593 841.969160593L841.970160593 806.570160593Z"
       style="" /><path
       id="path2775"
       d="M453.01777 488.41577C449.24377 492.18977 444.22877 494.26977 438.89677 494.26977L792.450160593 847.823160593C797.782160593 847.823160593 802.797160593 845.743160593 806.571160593 841.969160593Z"
       style="" /><path
       id="path2777"
       d="M438.89677 494.26977C433.566677264 494.26977 428.55247698 492.192477235 424.77769747 488.417697725L778.331088063 841.971088318C782.105867573 845.745867828 787.120067857 847.823160593 792.450160593 847.823160593Z"
       style="" /><path
       id="path2779"
       d="M424.77769747 488.417697725C424.777054944 488.417055199 424.776412454 488.416412624 424.77577 488.41577L778.329160593 841.969160593C778.329803047 841.969803217 778.330445537 841.970445792 778.331088063 841.971088318Z"
       style="" /><path
       id="path2781"
       d="M424.77577 488.41577L405.61777 469.25777L759.171160593 822.811160593L778.329160593 841.969160593Z"
       style="" /><path
       id="path2783"
       d="M405.61777 469.25777C397.90677 473.28777 389.78677 476.64477 381.34677 479.28777L734.900160593 832.841160593C743.340160593 830.198160593 751.460160593 826.841160593 759.171160593 822.811160593Z"
       style="" /><path
       id="path2785"
       d="M381.34677 479.28777L381.34677 506.34577L734.900160593 859.899160593L734.900160593 832.841160593Z"
       style="" /><path
       id="path2787"
       d="M381.34677 506.34577C381.34577 517.37377 372.37377 526.34577 361.34577 526.34577L714.899160593 879.899160593C725.927160593 879.899160593 734.899160593 870.927160593 734.900160593 859.899160593Z"
       style="" /><path
       id="path2789"
       d="M265.34877 446.84577C267.10277 446.84577 268.86877 447.30577 270.45577 448.24977L624.009160593 801.803160593C622.422160593 800.859160593 620.656160593 800.399160593 618.902160593 800.399160593Z"
       style="" /><path
       id="path2791"
       d="M270.45577 448.24977C280.70977 454.34677 291.94177 458.99377 303.84277 462.06277L657.396160593 815.616160593C645.495160593 812.547160593 634.263160593 807.900160593 624.009160593 801.803160593Z"
       style="" /><path
       id="path2793"
       d="M303.84277 462.06277C305.620541369 462.521601641 307.182699673 463.440818203 308.414819459 464.672937989L661.968210052 818.226328582C660.736090266 816.994208797 659.173931962 816.074992235 657.396160593 815.616160593Z"
       style="" /><path
       id="path2795"
       d="M308.414819459 464.672937989C310.243989324 466.502107854 311.34577 469.020901534 311.34577 471.74677L664.899160593 825.300160593C664.899160593 822.574292127 663.797379917 820.055498447 661.968210052 818.226328582Z"
       style="" /><path
       id="path2797"
       d="M311.34577 471.74677L311.34577 506.34577L664.899160593 859.899160593L664.899160593 825.300160593Z"
       style="" /><path
       id="path2799"
       d="M311.34577 506.34577L361.34577 506.34577L714.899160593 859.899160593L664.899160593 859.899160593Z"
       style="" /><path
       id="path2801"
       d="M361.34577 506.34577L361.34577 471.74577L714.899160593 825.299160593L714.899160593 859.899160593Z"
       style="" /><path
       id="path2803"
       d="M361.34577 471.74577C361.34577 467.18377 364.43177 463.20177 368.84877 462.06177L722.402160593 815.615160593C717.985160593 816.755160593 714.899160593 820.737160593 714.899160593 825.299160593Z"
       style="" /><path
       id="path2805"
       d="M368.84877 462.06177C380.74877 458.99377 391.98177 454.34577 402.23577 448.24877L755.789160593 801.802160593C745.535160593 807.899160593 734.302160593 812.547160593 722.402160593 815.615160593Z"
       style="" /><path
       id="path2807"
       d="M402.23577 448.24877C406.16477 445.91277 411.18177 446.53777 414.41777 449.77277L767.971160593 803.326160593C764.735160593 800.091160593 759.718160593 799.466160593 755.789160593 801.802160593Z"
       style="" /><path
       id="path2809"
       d="M414.41777 449.77277L438.91777 474.27277L792.471160593 827.826160593L767.971160593 803.326160593Z"
       style="" /><path
       id="path2811"
       d="M438.91777 474.27277L474.27477 438.87277L827.828160593 792.426160593L792.471160593 827.826160593Z"
       style="" /><path
       id="path2813"
       d="M474.27477 438.87277L449.77477 414.41577L803.328160593 767.969160593L827.828160593 792.426160593Z"
       style="" /><path
       id="path2815"
       d="M449.77477 414.41577C446.54077 411.18177 445.91377 406.16477 448.25077 402.23377L801.804160593 755.787160593C799.467160593 759.718160593 800.094160593 764.735160593 803.328160593 767.969160593Z"
       style="" /><path
       id="path2817"
       d="M448.25077 402.23377C454.34777 391.97977 458.99477 380.74777 462.06377 368.84677L815.617160593 722.400160593C812.548160593 734.301160593 807.901160593 745.533160593 801.804160593 755.787160593Z"
       style="" /><path
       id="path2819"
       d="M462.06377 368.84677C463.20377 364.42977 467.18577 361.34377 471.74777 361.34377L825.301160593 714.897160593C820.739160593 714.897160593 816.757160593 717.983160593 815.617160593 722.400160593Z"
       style="" /><path
       id="path2821"
       d="M471.74777 361.34377L506.34577 361.34377L859.899160593 714.897160593L825.301160593 714.897160593Z"
       style="" /><path
       id="path2823"
       d="M506.34577 361.34377L506.34577 311.34377L859.899160593 664.897160593L859.899160593 714.897160593Z"
       style="" /><path
       id="path2825"
       d="M506.34577 311.34377L471.74577 311.34377L825.299160593 664.897160593L859.899160593 664.897160593Z"
       style="" /><path
       id="path2827"
       d="M471.74577 311.34377C469.019901534 311.34377 466.501107854 310.241989324 464.671937989 308.412819459L818.225328582 661.966210052C820.054498447 663.795379917 822.573292127 664.897160593 825.299160593 664.897160593Z"
       style="" /><path
       id="path2829"
       d="M464.671937989 308.412819459C463.439818203 307.180699673 462.520601641 305.618541369 462.06177 303.84077L815.615160593 657.394160593C816.073992235 659.171931962 816.993208797 660.734090266 818.225328582 661.966210052Z"
       style="" /><path
       id="path2831"
       d="M462.06177 303.84077C458.99377 291.94077 454.34577 280.70777 448.24877 270.45377L801.802160593 624.007160593C807.899160593 634.261160593 812.547160593 645.494160593 815.615160593 657.394160593Z"
       style="" /><path
       id="path2833"
       d="M448.24877 270.45377C445.91177 266.52277 446.53877 261.50677 449.77277 258.27177L803.326160593 611.825160593C800.092160593 615.060160593 799.465160593 620.076160593 801.802160593 624.007160593Z"
       style="" /><path
       id="path2835"
       d="M449.77277 258.27177L474.27277 233.77177L827.826160593 587.325160593L803.326160593 611.825160593Z"
       style="" /><path
       id="path2837"
       d="M474.27277 233.77177L438.87277 198.41477L792.426160593 551.968160593L827.826160593 587.325160593Z"
       style="" /><path
       id="path2839"
       d="M438.87277 198.41477L414.41577 222.91477L767.969160593 576.468160593L792.426160593 551.968160593Z"
       style="" /><path
       id="path2841"
       d="M414.41577 222.91477C411.18077 226.14777 406.16277 226.77577 402.23377 224.43877L755.787160593 577.992160593C759.716160593 580.329160593 764.734160593 579.701160593 767.969160593 576.468160593Z"
       style="" /><path
       id="path2843"
       d="M402.23377 224.43877C391.97977 218.34177 380.74777 213.69477 368.84677 210.62577L722.400160593 564.179160593C734.301160593 567.248160593 745.533160593 571.895160593 755.787160593 577.992160593Z"
       style="" /><path
       id="path2845"
       d="M368.84677 210.62577C367.068998631 210.166938359 365.506840327 209.247721797 364.274720541 208.015602011L717.828111135 561.568992604C719.06023092 562.80111239 720.622389224 563.720328952 722.400160593 564.179160593Z"
       style="" /><path
       id="path2847"
       d="M364.274720541 208.015602011C362.445550676 206.186432146 361.34377 203.667638466 361.34377 200.94177L714.897160593 554.495160593C714.897160593 557.22102906 715.998941269 559.739822739 717.828111135 561.568992604Z"
       style="" /><path
       id="path2849"
       d="M361.34377 200.94177L361.34377 166.34577L714.897160593 519.899160593L714.897160593 554.495160593Z"
       style="" /><path
       id="path2851"
       d="M361.34377 166.34577L311.34377 166.34577L664.897160593 519.899160593L714.897160593 519.899160593Z"
       style="" /><path
       id="path2853"
       d="M311.34377 166.34577L311.34377 200.94577L664.897160593 554.499160593L664.897160593 519.899160593Z"
       style="" /><path
       id="path2855"
       d="M311.34377 200.94577C311.34377 205.50777 308.25777 209.48977 303.84077 210.62977L657.394160593 564.183160593C661.811160593 563.043160593 664.897160593 559.061160593 664.897160593 554.499160593Z"
       style="" /><path
       id="path2857"
       d="M303.84077 210.62977C291.94077 213.69777 280.70777 218.34577 270.45377 224.44277L624.007160593 577.996160593C634.261160593 571.899160593 645.494160593 567.251160593 657.394160593 564.183160593Z"
       style="" /><path
       id="path2859"
       d="M270.45377 224.44277C266.52477 226.77977 261.50777 226.15377 258.27177 222.91877L611.825160593 576.472160593C615.061160593 579.707160593 620.078160593 580.333160593 624.007160593 577.996160593Z"
       style="" /><path
       id="path2861"
       d="M258.27177 222.91877L233.77177 198.41877L587.325160593 551.972160593L611.825160593 576.472160593Z"
       style="" /><path
       id="path2863"
       d="M233.77177 198.41877L198.41477 233.81877L551.968160593 587.372160593L587.325160593 551.972160593Z"
       style="" /><path
       id="path2865"
       d="M198.41477 233.81877L222.91477 258.27577L576.468160593 611.829160593L551.968160593 587.372160593Z"
       style="" /><path
       id="path2867"
       d="M222.91477 258.27577C222.91477 258.27577 222.91477 258.27577 222.91477 258.27577L576.468160593 611.829160593C576.468160593 611.829160593 576.468160593 611.829160593 576.468160593 611.829160593Z"
       style="" /><path
       id="path2869"
       d="M222.91477 258.27577C226.14877 261.50977 226.77577 266.52677 224.43877 270.45777L577.992160593 624.011160593C580.329160593 620.080160593 579.702160593 615.063160593 576.468160593 611.829160593Z"
       style="" /><path
       id="path2871"
       d="M224.43877 270.45777C218.34177 280.71177 213.69477 291.94377 210.62577 303.84477L564.179160593 657.398160593C567.248160593 645.497160593 571.895160593 634.265160593 577.992160593 624.011160593Z"
       style="" /><path
       id="path2873"
       d="M210.62577 303.84477C209.48577 308.26177 205.50377 311.34777 200.94177 311.34777L554.495160593 664.901160593C559.057160593 664.901160593 563.039160593 661.815160593 564.179160593 657.398160593Z"
       style="" /><path
       id="path2875"
       d="M200.94177 311.34777L166.34577 311.34777L519.899160593 664.901160593L554.495160593 664.901160593Z"
       style="" /><path
       id="path2877"
       d="M166.34577 311.34777L166.34577 361.34777L519.899160593 714.901160593L519.899160593 664.901160593Z"
       style="" /><path
       id="path2879"
       d="M166.34577 361.34777L200.94577 361.34777L554.499160593 714.901160593L519.899160593 714.901160593Z"
       style="" /><path
       id="path2881"
       d="M200.94577 361.34777C203.671638466 361.34777 206.190432146 362.449550676 208.019602011 364.278720541L561.572992604 717.832111135C559.743822739 716.002941269 557.22502906 714.901160593 554.499160593 714.901160593Z"
       style="" /><path
       id="path2883"
       d="M208.019602011 364.278720541C209.251721797 365.510840327 210.170938359 367.072998631 210.62977 368.85077L564.183160593 722.404160593C563.724328952 720.626389224 562.80511239 719.06423092 561.572992604 717.832111135Z"
       style="" /><path
       id="path2885"
       d="M210.62977 368.85077C213.69777 380.75077 218.34577 391.98377 224.44277 402.23777L577.996160593 755.791160593C571.899160593 745.537160593 567.251160593 734.304160593 564.183160593 722.404160593Z"
       style="" /><path
       id="path2887"
       d="M224.44277 402.23777C226.77977 406.16877 226.15277 411.18477 222.91877 414.41977L576.472160593 767.973160593C579.706160593 764.738160593 580.333160593 759.722160593 577.996160593 755.791160593Z"
       style="" /><path
       id="path2889"
       d="M222.91877 414.41977L198.41877 438.91977L551.972160593 792.473160593L576.472160593 767.973160593Z"
       style="" /><path
       id="path2891"
       d="M198.41877 438.91977L233.81877 474.27677L587.372160593 827.830160593L551.972160593 792.473160593Z"
       style="" /><path
       id="path2893"
       d="M233.81877 474.27677L258.27577 449.77677L611.829160593 803.330160593L587.372160593 827.830160593Z"
       style="" /><path
       id="path2895"
       d="M258.27577 449.77677C260.20177 447.84777 262.76277 446.84577 265.34877 446.84577L618.902160593 800.399160593C616.316160593 800.399160593 613.755160593 801.401160593 611.829160593 803.330160593Z"
       style="" /><path
       id="path2897"
       d="M516.34577 311.34577L516.34577 361.34577L869.899160593 714.899160593L869.899160593 664.899160593Z"
       style="" /><path
       id="path2899"
       d="M516.34577 361.34577C516.34577 366.84577 511.84577 371.34577 506.34577 371.34577L859.899160593 724.899160593C865.399160593 724.899160593 869.899160593 720.399160593 869.899160593 714.899160593Z"
       style="" /><path
       id="path2901"
       d="M506.34577 371.34577L471.74577 371.34577L825.299160593 724.899160593L859.899160593 724.899160593Z"
       style="" /><path
       id="path2903"
       d="M471.74577 371.34577C468.44577 384.14577 463.44577 396.24577 456.84577 407.34577L810.399160593 760.899160593C816.999160593 749.799160593 821.999160593 737.699160593 825.299160593 724.899160593Z"
       style="" /><path
       id="path2905"
       d="M456.84577 407.34577L481.34577 431.84577L834.899160593 785.399160593L810.399160593 760.899160593Z"
       style="" /><path
       id="path2907"
       d="M481.34577 431.84577C485.24577 435.74577 485.24577 442.04577 481.34577 445.94577L834.899160593 799.499160593C838.799160593 795.599160593 838.799160593 789.299160593 834.899160593 785.399160593Z"
       style="" /><path
       id="path2909"
       d="M481.34577 445.94577L445.94577 481.34577L799.499160593 834.899160593L834.899160593 799.499160593Z"
       style="" /><path
       id="path2911"
       d="M445.94577 481.34577C442.04577 485.24577 435.74577 485.24577 431.84577 481.34577L785.399160593 834.899160593C789.299160593 838.799160593 795.599160593 838.799160593 799.499160593 834.899160593Z"
       style="" /><path
       id="path2913"
       d="M431.84577 481.34577L407.34577 456.84577L760.899160593 810.399160593L785.399160593 834.899160593Z"
       style="" /><path
       id="path2915"
       d="M407.34577 456.84577C396.24577 463.44577 384.14577 468.44577 371.34577 471.74577L724.899160593 825.299160593C737.699160593 821.999160593 749.799160593 816.999160593 760.899160593 810.399160593Z"
       style="" /><path
       id="path2917"
       d="M371.34577 471.74577L371.34577 506.34577L724.899160593 859.899160593L724.899160593 825.299160593Z"
       style="" /><path
       id="path2919"
       d="M371.34577 506.34577C371.34577 511.84577 366.84577 516.34577 361.34577 516.34577L714.899160593 869.899160593C720.399160593 869.899160593 724.899160593 865.399160593 724.899160593 859.899160593Z"
       style="" /><path
       id="path2921"
       d="M361.34577 516.34577L311.34577 516.34577L664.899160593 869.899160593L714.899160593 869.899160593Z"
       style="" /><path
       id="path2923"
       d="M311.34577 516.34577C305.84577 516.34577 301.34577 511.84577 301.34577 506.34577L654.899160593 859.899160593C654.899160593 865.399160593 659.399160593 869.899160593 664.899160593 869.899160593Z"
       style="" /><path
       id="path2925"
       d="M301.34577 506.34577L301.34577 471.74577L654.899160593 825.299160593L654.899160593 859.899160593Z"
       style="" /><path
       id="path2927"
       d="M301.34577 471.74577C288.54577 468.44577 276.44577 463.44577 265.34577 456.84577L618.899160593 810.399160593C629.999160593 816.999160593 642.099160593 821.999160593 654.899160593 825.299160593Z"
       style="" /><path
       id="path2929"
       d="M265.34577 456.84577L240.84577 481.34577L594.399160593 834.899160593L618.899160593 810.399160593Z"
       style="" /><path
       id="path2931"
       d="M240.84577 481.34577C236.94577 485.24577 230.64577 485.24577 226.74577 481.34577L580.299160593 834.899160593C584.199160593 838.799160593 590.499160593 838.799160593 594.399160593 834.899160593Z"
       style="" /><path
       id="path2933"
       d="M226.74577 481.34577L191.34577 445.94577L544.899160593 799.499160593L580.299160593 834.899160593Z"
       style="" /><path
       id="path2935"
       d="M191.34577 445.94577C191.34577 445.94577 191.34577 445.94577 191.34577 445.94577L544.899160593 799.499160593C544.899160593 799.499160593 544.899160593 799.499160593 544.899160593 799.499160593Z"
       style="" /><path
       id="path2937"
       d="M191.34577 445.94577C187.44577 442.04577 187.44577 435.74577 191.34577 431.84577L544.899160593 785.399160593C540.999160593 789.299160593 540.999160593 795.599160593 544.899160593 799.499160593Z"
       style="" /><path
       id="path2939"
       d="M191.34577 431.84577L215.84577 407.34577L569.399160593 760.899160593L544.899160593 785.399160593Z"
       style="" /><path
       id="path2941"
       d="M215.84577 407.34577C209.24577 396.24577 204.24577 384.14577 200.94577 371.34577L554.499160593 724.899160593C557.799160593 737.699160593 562.799160593 749.799160593 569.399160593 760.899160593Z"
       style="" /><path
       id="path2943"
       d="M200.94577 371.34577L166.34577 371.34577L519.899160593 724.899160593L554.499160593 724.899160593Z"
       style="" /><path
       id="path2945"
       d="M166.34577 371.34577C160.84577 371.34577 156.34577 366.84577 156.34577 361.34577L509.899160593 714.899160593C509.899160593 720.399160593 514.399160593 724.899160593 519.899160593 724.899160593Z"
       style="" /><path
       id="path2947"
       d="M156.34577 361.34577L156.34577 311.34577L509.899160593 664.899160593L509.899160593 714.899160593Z"
       style="" /><path
       id="path2949"
       d="M156.34577 311.34577C156.34577 305.84577 160.84577 301.34577 166.34577 301.34577L519.899160593 654.899160593C514.399160593 654.899160593 509.899160593 659.399160593 509.899160593 664.899160593Z"
       style="" /><path
       id="path2951"
       d="M166.34577 301.34577L200.94577 301.34577L554.499160593 654.899160593L519.899160593 654.899160593Z"
       style="" /><path
       id="path2953"
       d="M200.94577 301.34577C204.24577 288.54577 209.24577 276.44577 215.84577 265.34577L569.399160593 618.899160593C562.799160593 629.999160593 557.799160593 642.099160593 554.499160593 654.899160593Z"
       style="" /><path
       id="path2955"
       d="M215.84577 265.34577L191.34577 240.84577L544.899160593 594.399160593L569.399160593 618.899160593Z"
       style="" /><path
       id="path2957"
       d="M191.34577 240.84577C187.44577 236.94577 187.44577 230.64577 191.34577 226.74577L544.899160593 580.299160593C540.999160593 584.199160593 540.999160593 590.499160593 544.899160593 594.399160593Z"
       style="" /><path
       id="path2959"
       d="M191.34577 226.74577L226.74577 191.34577L580.299160593 544.899160593L544.899160593 580.299160593Z"
       style="" /><path
       id="path2961"
       d="M226.74577 191.34577C230.64577 187.44577 236.94577 187.44577 240.84577 191.34577L594.399160593 544.899160593C590.499160593 540.999160593 584.199160593 540.999160593 580.299160593 544.899160593Z"
       style="" /><path
       id="path2963"
       d="M240.84577 191.34577L265.34577 215.84577L618.899160593 569.399160593L594.399160593 544.899160593Z"
       style="" /><path
       id="path2965"
       d="M265.34577 215.84577C276.44577 209.24577 288.54577 204.24577 301.34577 200.94577L654.899160593 554.499160593C642.099160593 557.799160593 629.999160593 562.799160593 618.899160593 569.399160593Z"
       style="" /><path
       id="path2967"
       d="M301.34577 200.94577L301.34577 166.34577L654.899160593 519.899160593L654.899160593 554.499160593Z"
       style="" /><path
       id="path2969"
       d="M301.34577 166.34577C301.34577 160.84577 305.84577 156.34577 311.34577 156.34577L664.899160593 509.899160593C659.399160593 509.899160593 654.899160593 514.399160593 654.899160593 519.899160593Z"
       style="" /><path
       id="path2971"
       d="M311.34577 156.34577L361.34577 156.34577L714.899160593 509.899160593L664.899160593 509.899160593Z"
       style="" /><path
       id="path2973"
       d="M361.34577 156.34577C366.84577 156.34577 371.34577 160.84577 371.34577 166.34577L724.899160593 519.899160593C724.899160593 514.399160593 720.399160593 509.899160593 714.899160593 509.899160593Z"
       style="" /><path
       id="path2975"
       d="M371.34577 166.34577L371.34577 200.94577L724.899160593 554.499160593L724.899160593 519.899160593Z"
       style="" /><path
       id="path2977"
       d="M371.34577 200.94577C384.14577 204.24577 396.24577 209.24577 407.34577 215.84577L760.899160593 569.399160593C749.799160593 562.799160593 737.699160593 557.799160593 724.899160593 554.499160593Z"
       style="" /><path
       id="path2979"
       d="M407.34577 215.84577L431.84577 191.34577L785.399160593 544.899160593L760.899160593 569.399160593Z"
       style="" /><path
       id="path2981"
       d="M431.84577 191.34577C435.74577 187.44577 442.04577 187.44577 445.94577 191.34577L799.499160593 544.899160593C795.599160593 540.999160593 789.299160593 540.999160593 785.399160593 544.899160593Z"
       style="" /><path
       id="path2983"
       d="M445.94577 191.34577L481.34577 226.74577L834.899160593 580.299160593L799.499160593 544.899160593Z"
       style="" /><path
       id="path2985"
       d="M481.34577 226.74577C485.24577 230.64577 485.24577 236.94577 481.34577 240.84577L834.899160593 594.399160593C838.799160593 590.499160593 838.799160593 584.199160593 834.899160593 580.299160593Z"
       style="" /><path
       id="path2987"
       d="M481.34577 240.84577L456.84577 265.34577L810.399160593 618.899160593L834.899160593 594.399160593Z"
       style="" /><path
       id="path2989"
       d="M456.84577 265.34577C463.44577 276.44577 468.44577 288.54577 471.74577 301.34577L825.299160593 654.899160593C821.999160593 642.099160593 816.999160593 629.999160593 810.399160593 618.899160593Z"
       style="" /><path
       id="path2991"
       d="M471.74577 301.34577L506.34577 301.34577L859.899160593 654.899160593L825.299160593 654.899160593Z"
       style="" /><path
       id="path2993"
       d="M506.34577 301.34577C511.84577 301.34577 516.34577 305.84577 516.34577 311.34577L869.899160593 664.899160593C869.899160593 659.399160593 865.399160593 654.899160593 859.899160593 654.899160593Z"
       style="" /></g><path
     id="circle130"
     style="fill:#000000"
     d="m 366.34577,336.34577 a 30,30 0 0 1 -30,30 30,30 0 0 1 -30,-30 30,30 0 0 1 30,-30 30,30 0 0 1 30,30 z m -30,-70 h -58.386 l 19.971,-17.475 -13.17,-15.051 -40,35 c -2.17,1.898 -3.415,4.642 -3.415,7.525 0,2.883 1.245,5.627 3.415,7.525 l 40,35 13.17,-15.051 -19.971,-17.473 h 58.386 c 27.57,0 50,22.43 50,50 h 20 c 0,-38.598 -31.402,-70 -70,-70 z m 91.585,122.475 -40,-35 -13.17,15.051 19.971,17.474 h -58.386 c -27.57,0 -50,-22.43 -50,-50 h -20 c 0,38.598 31.402,70 70,70 h 58.386 l -19.971,17.475 13.17,15.051 40,-35 c 2.17,-1.898 3.415,-4.642 3.415,-7.525 0,-2.883 -1.245,-5.628 -3.415,-7.526 z m -66.585,137.525 h -50 c -11.028,0 -20,-8.972 -20,-20 v -27.057 c -8.439,-2.644 -16.56,-6 -24.271,-10.03 l -19.158,19.158 c -3.775,3.775 -8.79,5.854 -14.121,5.854 -5.332,0 -10.347,-2.079 -14.122,-5.854 l -35.399,-35.399 c -3.774,-3.774 -5.854,-8.789 -5.854,-14.121 0,-5.331 2.078,-10.346 5.854,-14.121 l 19.158,-19.158 c -4.03,-7.711 -7.387,-15.831 -10.03,-24.271 h -27.057 c -11.028,0 -20,-8.972 -20,-20 v -50 c 0,-11.028 8.972,-20 20,-20 h 27.057 c 2.644,-8.439 6,-16.56 10.03,-24.271 l -19.158,-19.158 c -3.775,-3.775 -5.854,-8.79 -5.854,-14.121 0,-5.332 2.079,-10.347 5.854,-14.122 l 35.399,-35.399 c 3.774,-3.774 8.789,-5.854 14.121,-5.854 5.331,0 10.346,2.078 14.121,5.854 l 19.158,19.158 c 7.711,-4.03 15.831,-7.387 24.271,-10.03 v -27.058 c 0,-11.028 8.972,-20 20,-20 h 50 c 11.028,0 20,8.972 20,20 v 27.057 c 8.439,2.644 16.56,6 24.271,10.03 l 19.158,-19.158 c 3.775,-3.775 8.79,-5.854 14.121,-5.854 5.332,0 10.347,2.079 14.122,5.854 l 35.399,35.399 c 3.774,3.774 5.854,8.789 5.854,14.121 0,5.331 -2.078,10.346 -5.854,14.121 l -19.158,19.158 c 4.03,7.711 7.387,15.831 10.03,24.271 h 27.058 c 11.028,0 20,8.972 20,20 v 50 c 0,11.028 -8.972,20 -20,20 h -27.057 c -2.644,8.439 -6,16.56 -10.03,24.271 l 19.158,19.158 c 3.775,3.775 5.854,8.79 5.854,14.121 0,5.332 -2.079,10.347 -5.854,14.122 l -35.399,35.399 c -3.774,3.774 -8.789,5.854 -14.121,5.854 -5.331,0 -10.346,-2.078 -14.121,-5.854 l -19.158,-19.158 c -7.711,4.03 -15.831,7.387 -24.271,10.03 v 27.058 c -10e-4,11.028 -8.973,20 -20.001,20 z m -95.997,-79.5 c 1.754,0 3.52,0.46 5.107,1.404 10.254,6.097 21.486,10.744 33.387,13.813 4.417,1.14 7.503,5.122 7.503,9.684 v 34.599 h 50 v -34.6 c 0,-4.562 3.086,-8.544 7.503,-9.684 11.9,-3.068 23.133,-7.716 33.387,-13.813 3.929,-2.336 8.946,-1.711 12.182,1.524 l 24.5,24.5 35.357,-35.4 -24.5,-24.457 c -3.234,-3.234 -3.861,-8.251 -1.524,-12.182 6.097,-10.254 10.744,-21.486 13.813,-33.387 1.14,-4.417 5.122,-7.503 9.684,-7.503 h 34.598 v -50 h -34.6 c -4.562,0 -8.544,-3.086 -9.684,-7.503 -3.068,-11.9 -7.716,-23.133 -13.813,-33.387 -2.337,-3.931 -1.71,-8.947 1.524,-12.182 l 24.5,-24.5 -35.4,-35.357 -24.457,24.5 c -3.235,3.233 -8.253,3.861 -12.182,1.524 -10.254,-6.097 -21.486,-10.744 -33.387,-13.813 -4.417,-1.14 -7.503,-5.122 -7.503,-9.684 v -34.596 h -50 v 34.6 c 0,4.562 -3.086,8.544 -7.503,9.684 -11.9,3.068 -23.133,7.716 -33.387,13.813 -3.929,2.337 -8.946,1.711 -12.182,-1.524 l -24.5,-24.5 -35.357,35.4 24.5,24.457 c 3.234,3.234 3.861,8.251 1.524,12.182 -6.097,10.254 -10.744,21.486 -13.813,33.387 -1.14,4.417 -5.122,7.503 -9.684,7.503 h -34.596 v 50 h 34.6 c 4.562,0 8.544,3.086 9.684,7.503 3.068,11.9 7.716,23.133 13.813,33.387 2.337,3.931 1.71,8.947 -1.524,12.182 l -24.5,24.5 35.4,35.357 24.457,-24.5 c 1.926,-1.929 4.487,-2.931 7.073,-2.931 z m 250.997,-135.5 v 50 c 0,5.5 -4.5,10 -10,10 h -34.6 c -3.3,12.8 -8.3,24.9 -14.9,36 l 24.5,24.5 c 3.9,3.9 3.9,10.2 0,14.1 l -35.4,35.4 c -3.9,3.9 -10.2,3.9 -14.1,0 l -24.5,-24.5 c -11.1,6.6 -23.2,11.6 -36,14.9 v 34.6 c 0,5.5 -4.5,10 -10,10 h -50 c -5.5,0 -10,-4.5 -10,-10 v -34.6 c -12.8,-3.3 -24.9,-8.3 -36,-14.9 l -24.5,24.5 c -3.9,3.9 -10.2,3.9 -14.1,0 l -35.4,-35.4 c -3.9,-3.9 -3.9,-10.2 0,-14.1 l 24.5,-24.5 c -6.6,-11.1 -11.6,-23.2 -14.9,-36 h -34.6 c -5.5,0 -10,-4.5 -10,-10 v -50 c 0,-5.5 4.5,-10 10,-10 h 34.6 c 3.3,-12.8 8.3,-24.9 14.9,-36 l -24.5,-24.5 c -3.9,-3.9 -3.9,-10.2 0,-14.1 l 35.4,-35.4 c 3.9,-3.9 10.2,-3.9 14.1,0 l 24.5,24.5 c 11.1,-6.6 23.2,-11.6 36,-14.9 v -34.6 c 0,-5.5 4.5,-10 10,-10 h 50 c 5.5,0 10,4.5 10,10 v 34.6 c 12.8,3.3 24.9,8.3 36,14.9 l 24.5,-24.5 c 3.9,-3.9 10.2,-3.9 14.1,0 l 35.4,35.4 c 3.9,3.9 3.9,10.2 0,14.1 l -24.5,24.5 c 6.6,11.1 11.6,23.2 14.9,36 h 34.6 c 5.5,0 10,4.5 10,10 z"
     inkscape:connector-curvature="0" /></g><g
   id="g118"
   transform="translate(94.74577,94.74577)"><path
     style="fill:#e7eced"
     d="m 420,215 v 50 c 0,5.5 -4.5,10 -10,10 h -34.6 c -3.3,12.8 -8.3,24.9 -14.9,36 l 24.5,24.5 c 3.9,3.9 3.9,10.2 0,14.1 L 349.6,385 c -3.9,3.9 -10.2,3.9 -14.1,0 L 311,360.5 c -11.1,6.6 -23.2,11.6 -36,14.9 V 410 c 0,5.5 -4.5,10 -10,10 h -50 c -5.5,0 -10,-4.5 -10,-10 v -34.6 c -12.8,-3.3 -24.9,-8.3 -36,-14.9 L 144.5,385 c -3.9,3.9 -10.2,3.9 -14.1,0 L 95,349.6 c -3.9,-3.9 -3.9,-10.2 0,-14.1 L 119.5,311 c -6.6,-11.1 -11.6,-23.2 -14.9,-36 H 70 c -5.5,0 -10,-4.5 -10,-10 v -50 c 0,-5.5 4.5,-10 10,-10 h 34.6 c 3.3,-12.8 8.3,-24.9 14.9,-36 L 95,144.5 c -3.9,-3.9 -3.9,-10.2 0,-14.1 L 130.4,95 c 3.9,-3.9 10.2,-3.9 14.1,0 l 24.5,24.5 c 11.1,-6.6 23.2,-11.6 36,-14.9 V 70 c 0,-5.5 4.5,-10 10,-10 h 50 c 5.5,0 10,4.5 10,10 v 34.6 c 12.8,3.3 24.9,8.3 36,14.9 L 335.5,95 c 3.9,-3.9 10.2,-3.9 14.1,0 l 35.4,35.4 c 3.9,3.9 3.9,10.2 0,14.1 L 360.5,169 c 6.6,11.1 11.6,23.2 14.9,36 H 410 c 5.5,0 10,4.5 10,10 z"
     id="path13"
     inkscape:connector-curvature="0" /><g
     id="g19">
				<path
   style="fill:#231f20"
   d="m 265,430 h -50 c -11.028,0 -20,-8.972 -20,-20 v -27.057 c -8.439,-2.644 -16.56,-6 -24.271,-10.03 l -19.158,19.158 c -3.775,3.775 -8.79,5.854 -14.121,5.854 -5.332,0 -10.347,-2.079 -14.122,-5.854 L 87.929,356.672 c -3.774,-3.774 -5.854,-8.789 -5.854,-14.121 0,-5.331 2.078,-10.346 5.854,-14.121 l 19.158,-19.158 c -4.03,-7.711 -7.387,-15.831 -10.03,-24.271 H 70 c -11.028,0 -20,-8.972 -20,-20 v -50 c 0,-11.028 8.972,-20 20,-20 h 27.057 c 2.644,-8.439 6,-16.56 10.03,-24.271 L 87.929,151.572 c -3.775,-3.775 -5.854,-8.79 -5.854,-14.121 0,-5.332 2.079,-10.347 5.854,-14.122 L 123.328,87.93 c 3.774,-3.774 8.789,-5.854 14.121,-5.854 5.331,0 10.346,2.078 14.121,5.854 l 19.158,19.158 c 7.711,-4.03 15.831,-7.387 24.271,-10.03 V 70 c 0,-11.028 8.972,-20 20,-20 h 50 c 11.028,0 20,8.972 20,20 v 27.057 c 8.439,2.644 16.56,6 24.271,10.03 l 19.158,-19.158 c 3.775,-3.775 8.79,-5.854 14.121,-5.854 5.332,0 10.347,2.079 14.122,5.854 l 35.399,35.399 c 3.774,3.774 5.854,8.789 5.854,14.121 0,5.331 -2.078,10.346 -5.854,14.121 l -19.158,19.158 c 4.03,7.711 7.387,15.831 10.03,24.271 H 410 c 11.028,0 20,8.972 20,20 v 50 c 0,11.028 -8.972,20 -20,20 h -27.057 c -2.644,8.439 -6,16.56 -10.03,24.271 l 19.158,19.158 c 3.775,3.775 5.854,8.79 5.854,14.121 0,5.332 -2.079,10.347 -5.854,14.122 l -35.399,35.399 c -3.774,3.774 -8.789,5.854 -14.121,5.854 -5.331,0 -10.346,-2.078 -14.121,-5.854 l -19.158,-19.158 c -7.711,4.03 -15.831,7.387 -24.271,10.03 V 410 C 285,421.028 276.028,430 265,430 Z m -95.997,-79.5 c 1.754,0 3.52,0.46 5.107,1.404 10.254,6.097 21.486,10.744 33.387,13.813 4.417,1.14 7.503,5.122 7.503,9.684 V 410 h 50 v -34.6 c 0,-4.562 3.086,-8.544 7.503,-9.684 11.9,-3.068 23.133,-7.716 33.387,-13.813 3.929,-2.336 8.946,-1.711 12.182,1.524 l 24.5,24.5 35.357,-35.4 -24.5,-24.457 c -3.234,-3.234 -3.861,-8.251 -1.524,-12.182 6.097,-10.254 10.744,-21.486 13.813,-33.387 1.14,-4.417 5.122,-7.503 9.684,-7.503 H 410 v -50 h -34.6 c -4.562,0 -8.544,-3.086 -9.684,-7.503 -3.068,-11.9 -7.716,-23.133 -13.813,-33.387 -2.337,-3.931 -1.71,-8.947 1.524,-12.182 l 24.5,-24.5 -35.4,-35.357 -24.457,24.5 c -3.235,3.233 -8.253,3.861 -12.182,1.524 -10.254,-6.097 -21.486,-10.744 -33.387,-13.813 -4.417,-1.14 -7.503,-5.122 -7.503,-9.684 V 70 h -50 v 34.6 c 0,4.562 -3.086,8.544 -7.503,9.684 -11.9,3.068 -23.133,7.716 -33.387,13.813 -3.929,2.337 -8.946,1.711 -12.182,-1.524 l -24.5,-24.5 -35.357,35.4 24.5,24.457 c 3.234,3.234 3.861,8.251 1.524,12.182 -6.097,10.254 -10.744,21.486 -13.813,33.387 -1.14,4.417 -5.122,7.503 -9.684,7.503 H 70 v 50 h 34.6 c 4.562,0 8.544,3.086 9.684,7.503 3.068,11.9 7.716,23.133 13.813,33.387 2.337,3.931 1.71,8.947 -1.524,12.182 l -24.5,24.5 35.4,35.357 24.457,-24.5 c 1.926,-1.929 4.487,-2.931 7.073,-2.931 z"
   id="path17"
   inkscape:connector-curvature="0" />
			</g><path
     style="fill:#231f20"
     d="m 331.585,292.475 -40,-35 -13.17,15.051 L 298.386,290 H 240 c -27.57,0 -50,-22.43 -50,-50 h -20 c 0,38.598 31.402,70 70,70 h 58.386 l -19.971,17.475 13.17,15.051 40,-35 c 2.17,-1.898 3.415,-4.642 3.415,-7.525 0,-2.883 -1.245,-5.628 -3.415,-7.526 z"
     id="path24"
     inkscape:connector-curvature="0" /><path
     style="fill:#231f20"
     d="m 240,170 h -58.386 l 19.971,-17.475 -13.17,-15.051 -40,35 c -2.17,1.898 -3.415,4.642 -3.415,7.525 0,2.883 1.245,5.627 3.415,7.525 l 40,35 13.17,-15.051 L 181.614,190 H 240 c 27.57,0 50,22.43 50,50 h 20 c 0,-38.598 -31.402,-70 -70,-70 z"
     id="path26"
     inkscape:connector-curvature="0" /><circle
     style="fill:#afb6bb"
     cx="240"
     cy="240"
     r="30"
     id="circle28" /></g>
<g
   id="g32"
   transform="translate(-10,-10)">
</g>
<g
   id="g34"
   transform="translate(-10,-10)">
</g>
<g
   id="g36"
   transform="translate(-10,-10)">
</g>
<g
   id="g38"
   transform="translate(-10,-10)">
</g>
<g
   id="g40"
   transform="translate(-10,-10)">
</g>
<g
   id="g42"
   transform="translate(-10,-10)">
</g>
<g
   id="g44"
   transform="translate(-10,-10)">
</g>
<g
   id="g46"
   transform="translate(-10,-10)">
</g>
<g
   id="g48"
   transform="translate(-10,-10)">
</g>
<g
   id="g50"
   transform="translate(-10,-10)">
</g>
<g
   id="g52"
   transform="translate(-10,-10)">
</g>
<g
   id="g54"
   transform="translate(-10,-10)">
</g>
<g
   id="g56"
   transform="translate(-10,-10)">
</g>
<g
   id="g58"
   transform="translate(-10,-10)">
</g>
<g
   id="g60"
   transform="translate(-10,-10)">
</g>
<g
   style="fill:#000000"
   id="g124"
   transform="translate(94.74577,94.74577)">
				
			</g></svg>